<?xml version="1.0" encoding="utf-8" standalone="no"?>
<!DOCTYPE svg PUBLIC "-//W3C//DTD SVG 1.1//EN"
  "http://www.w3.org/Graphics/SVG/1.1/DTD/svg11.dtd">
<!-- Created with matplotlib (https://matplotlib.org/) -->
<svg height="345.6pt" version="1.1" viewBox="0 0 460.8 345.6" width="460.8pt" xmlns="http://www.w3.org/2000/svg" xmlns:xlink="http://www.w3.org/1999/xlink">
 <defs>
  <style type="text/css">
*{stroke-linecap:butt;stroke-linejoin:round;}
  </style>
 </defs>
 <g id="figure_1">
  <g id="patch_1">
   <path d="M 0 345.6 
L 460.8 345.6 
L 460.8 0 
L 0 0 
z
" style="fill:#ffffff;"/>
  </g>
  <g id="axes_1">
   <g id="PolyCollection_1">
    <path clip-path="url(#pe88757f500)" d="M 73.832727 282.054215 
L 73.832727 284.906923 
L 81.562597 284.906923 
L 89.292468 284.906923 
L 97.022338 284.906923 
L 104.752208 284.906923 
L 112.482078 284.906923 
L 120.211948 284.906923 
L 127.941818 284.906923 
L 135.671688 284.906923 
L 143.401558 284.906923 
L 151.131429 284.906923 
L 158.861299 284.906923 
L 166.591169 284.906923 
L 174.321039 284.906923 
L 182.050909 284.906923 
L 189.780779 284.906923 
L 197.510649 284.906923 
L 205.240519 284.906923 
L 212.97039 284.906923 
L 220.70026 284.906923 
L 228.43013 284.906923 
L 236.16 284.906923 
L 243.88987 284.906923 
L 251.61974 284.906923 
L 259.34961 284.906923 
L 267.079481 284.906923 
L 274.809351 284.906923 
L 282.539221 284.906923 
L 290.269091 284.906923 
L 297.998961 284.906923 
L 305.728831 284.906923 
L 313.458701 284.906923 
L 321.188571 284.906923 
L 328.918442 284.906923 
L 336.648312 284.906923 
L 344.378182 284.906923 
L 352.108052 284.906923 
L 359.837922 284.906923 
L 367.567792 284.906923 
L 375.297662 284.906923 
L 383.027532 284.906923 
L 390.757403 284.906923 
L 398.487273 284.906923 
L 398.487273 53.568 
L 398.487273 53.568 
L 390.757403 162.546084 
L 383.027532 173.334868 
L 375.297662 156.998213 
L 367.567792 171.135876 
L 359.837922 171.252888 
L 352.108052 176.761688 
L 344.378182 181.140637 
L 336.648312 183.940319 
L 328.918442 198.696304 
L 321.188571 223.544007 
L 313.458701 213.860229 
L 305.728831 201.937988 
L 297.998961 221.564414 
L 290.269091 212.567883 
L 282.539221 221.454013 
L 274.809351 187.173187 
L 267.079481 187.168378 
L 259.34961 217.135575 
L 251.61974 199.061767 
L 243.88987 214.336494 
L 236.16 187.484151 
L 228.43013 213.040141 
L 220.70026 219.126388 
L 212.97039 193.126393 
L 205.240519 184.358678 
L 197.510649 223.750582 
L 189.780779 272.561584 
L 182.050909 236.953949 
L 174.321039 212.043532 
L 166.591169 263.973395 
L 158.861299 266.970235 
L 151.131429 254.450509 
L 143.401558 211.53561 
L 135.671688 244.754709 
L 127.941818 261.617318 
L 120.211948 268.127335 
L 112.482078 291.946572 
L 104.752208 290.906884 
L 97.022338 295.488 
L 89.292468 256.697988 
L 81.562597 266.718377 
L 73.832727 282.054215 
z
" style="fill:#1f77b4;"/>
   </g>
   <g id="PolyCollection_2">
    <path clip-path="url(#pe88757f500)" d="M 73.832727 240.901189 
L 73.832727 284.906923 
L 81.562597 284.906923 
L 89.292468 284.906923 
L 97.022338 284.906923 
L 104.752208 284.906923 
L 112.482078 284.906923 
L 120.211948 284.906923 
L 127.941818 284.906923 
L 135.671688 284.906923 
L 143.401558 284.906923 
L 151.131429 284.906923 
L 158.861299 284.906923 
L 166.591169 284.906923 
L 174.321039 284.906923 
L 182.050909 284.906923 
L 189.780779 284.906923 
L 197.510649 284.906923 
L 205.240519 284.906923 
L 212.97039 284.906923 
L 220.70026 284.906923 
L 228.43013 284.906923 
L 236.16 284.906923 
L 243.88987 284.906923 
L 251.61974 284.906923 
L 259.34961 284.906923 
L 267.079481 284.906923 
L 274.809351 284.906923 
L 282.539221 284.906923 
L 290.269091 284.906923 
L 297.998961 284.906923 
L 305.728831 284.906923 
L 313.458701 284.906923 
L 321.188571 284.906923 
L 328.918442 284.906923 
L 336.648312 284.906923 
L 344.378182 284.906923 
L 352.108052 284.906923 
L 359.837922 284.906923 
L 367.567792 284.906923 
L 375.297662 284.906923 
L 383.027532 284.906923 
L 390.757403 284.906923 
L 398.487273 284.906923 
L 398.487273 156.232549 
L 398.487273 156.232549 
L 390.757403 196.366822 
L 383.027532 198.507764 
L 375.297662 186.022322 
L 367.567792 188.617155 
L 359.837922 199.280316 
L 352.108052 192.99667 
L 344.378182 185.468345 
L 336.648312 199.934898 
L 328.918442 211.703066 
L 321.188571 214.788244 
L 313.458701 216.932922 
L 305.728831 220.961853 
L 297.998961 209.785309 
L 290.269091 217.323765 
L 282.539221 227.617666 
L 274.809351 217.18065 
L 267.079481 216.597041 
L 259.34961 212.807931 
L 251.61974 225.589984 
L 243.88987 220.75616 
L 236.16 219.73473 
L 228.43013 227.351914 
L 220.70026 239.958417 
L 212.97039 239.559019 
L 205.240519 218.376001 
L 197.510649 233.237338 
L 189.780779 242.866205 
L 182.050909 232.626903 
L 174.321039 246.632768 
L 166.591169 249.494496 
L 158.861299 253.103565 
L 151.131429 234.819302 
L 143.401558 230.504796 
L 135.671688 248.737145 
L 127.941818 239.41372 
L 120.211948 241.946267 
L 112.482078 254.189351 
L 104.752208 261.182837 
L 97.022338 258.001875 
L 89.292468 241.249639 
L 81.562597 256.602268 
L 73.832727 240.901189 
z
" style="fill:#ff7f0e;fill-opacity:0.5;"/>
   </g>
   <g id="LineCollection_1">
    <path clip-path="url(#pe88757f500)" d="M 73.832727 166.727603 
L 398.487273 166.727603 
" style="fill:none;stroke:#000000;stroke-dasharray:5.55,2.4;stroke-dashoffset:0;stroke-width:1.5;"/>
   </g>
  </g>
 </g>
 <defs>
  <clipPath id="pe88757f500">
   <rect height="266.112" width="357.12" x="57.6" y="41.472"/>
  </clipPath>
 </defs>
</svg>
